#!OML:ASF F:\VICON\USERDATA\INSTALL\rory3\rory3.ASF
:FULLY-SPECIFIED
:DEGREES
1695
root 1.98721 17.0333 -3.69245 6.18925 17.5513 1.4707
lowerback 9.50851 -4.45318 -2.4545
upperback 0.815636 -5.91681 5.67706
thorax -3.60294 -2.87498 8.0756
lowerneck -18.5982 -6.25994 -12.2759
upperneck 20.5369 -7.1152 8.21347
head 10.4014 -3.30564 3.91146
rclavicle 7.35503e-014 -1.27222e-014
rhumerus -20.6976 -2.10218 -70.2624
rradius 133.365
rwrist -0.39737
rhand -19.4087 21.4505
rfingers 7.12502
rthumb 6.91063 -8.41671
lclavicle 7.35503e-014 -1.27222e-014
lhumerus -3.72337 -23.5113 93.9672
lradius 117.05
lwrist -7.18291
lhand -6.20054 6.02424
lfingers 7.12502
lthumb 19.6396 35.0522
rfemur -24.2972 1.41347 -1.98316
rtibia 54.6261
rfoot -7.67636 -5.05662
rtoes -8.90514
lfemur -9.2283 5.3032 -9.0299
ltibia 41.6003
lfoot -17.4229 -16.14
ltoes -31.6428
1696
root 2.01614 17.1116 -3.659 6.2376 17.7662 1.56391
lowerback 9.37694 -4.35103 -2.72112
upperback 0.680067 -5.81052 5.6106
thorax -3.66881 -2.8135 8.14098
lowerneck -18.6026 -6.31699 -12.3661
upperneck 20.4823 -7.23238 8.48056
head 10.4109 -3.3356 4.0045
rclavicle -3.4191e-014 2.06736e-014
rhumerus -21.2052 -2.32872 -70.2166
rradius 133.623
rwrist -0.0642959
rhand -19.3969 21.309
rfingers 7.12502
rthumb 6.92199 -8.55787
lclavicle -3.4191e-014 2.06736e-014
lhumerus -4.39877 -24.1904 93.5819
lradius 117.258
lwrist -7.17843
lhand -6.12827 6.15715
lfingers 7.12502
lthumb 19.709 35.178
rfemur -24.2683 1.51351 -1.66813
rtibia 54.2811
rfoot -7.58039 -4.73717
rtoes -9.57915
lfemur -9.25705 5.0814 -9.09256
ltibia 41.434
lfoot -15.867 -16.6398
ltoes -32.8703
1697
root 2.04047 17.1988 -3.6221 6.25992 18.107 1.58624
lowerback 9.27637 -4.28062 -2.90002
upperback 0.56631 -5.73755 5.52784
thorax -3.73477 -2.76995 8.14402
lowerneck -18.7278 -6.40889 -12.3019
upperneck 20.5004 -7.40756 8.64298
head 10.4656 -3.38916 4.02378
rclavicle -1.27222e-014 -4.77083e-014
rhumerus -21.6481 -2.48478 -70.2981
rradius 133.816
rwrist 0.131819
rhand -19.4967 21.385
rfingers 7.12502
rthumb 6.82568 -8.48496
lclavicle -1.27222e-014 -4.77083e-014
lhumerus -4.9533 -24.7961 93.132
lradius 117.463
lwrist -7.16257
lhand -6.071 6.33256
lfingers 7.12502
lthumb 19.7641 35.3477
rfemur -24.1049 1.51489 -1.19577
rtibia 53.6814
rfoot -7.47381 -4.38936
rtoes -10.2986
lfemur -9.50712 4.73394 -8.99411
ltibia 41.4915
lfoot -13.6587 -17.566
ltoes -32.9454
1698
root 2.05525 17.2863 -3.59474 6.25337 18.4756 1.46833
lowerback 9.38069 -4.19807 -3.00269
upperback 0.427189 -5.6357 5.52552
thorax -3.9456 -2.70587 8.21102
lowerneck -18.8631 -6.53024 -12.3313
upperneck 20.4986 -7.5833 8.76446
head 10.518 -3.45439 4.04252
rclavicle 4.33351e-014 -4.92986e-014
rhumerus -21.8898 -2.59351 -70.2878
rradius 133.931
rwrist 0.16195
rhand -19.4264 21.2763
rfingers 7.12502
rthumb 6.89359 -8.59141
lclavicle 4.33351e-014 -4.92986e-014
lhumerus -5.39512 -25.2113 92.7576
lradius 117.602
lwrist -7.35001
lhand -5.71808 6.19283
lfingers 7.12502
lthumb 20.1033 35.1727
rfemur -23.945 1.51488 -0.505971
rtibia 52.8485
rfoot -7.38884 -4.14279
rtoes -10.657
lfemur -10.0046 4.47238 -8.6647
ltibia 41.7151
lfoot -10.8579 -18.6777
ltoes -32.1215
1699
root 2.06829 17.3772 -3.57279 6.21019 18.8327 1.12641
lowerback 9.54221 -4.10819 -2.88236
upperback 0.298175 -5.49601 5.59219
thorax -4.19866 -2.62434 8.22622
lowerneck -18.9877 -6.65919 -12.4182
upperneck 20.4601 -7.74885 8.87716
head 10.5565 -3.52045 4.06841
rclavicle -2.38542e-015 1.59028e-014
rhumerus -22.0451 -2.73556 -70.0205
rradius 134.062
rwrist 0.0356804
rhand -19.2129 21.0062
rfingers 7.12502
rthumb 7.09967 -8.85471
lclavicle -2.38542e-015 1.59028e-014
lhumerus -5.85431 -25.5319 92.454
lradius 117.598
lwrist -7.9869
lhand -5.56143 5.89341
lfingers 7.12502
lthumb 20.2539 34.8574
rfemur -23.8283 1.60345 0.444418
rtibia 51.7915
rfoot -7.43988 -3.98903
rtoes -10.8779
lfemur -10.6969 4.28272 -8.06453
ltibia 42.0329
lfoot -7.6301 -19.7623
ltoes -30.8438
1700
root 2.08851 17.4699 -3.53695 6.24633 19.326 1.05985
lowerback 9.52557 -4.08106 -2.85576
upperback 0.237448 -5.4583 5.52665
thorax -4.26835 -2.60211 8.13866
lowerneck -19.2497 -6.7716 -12.5152
upperneck 20.4352 -7.89564 9.08559
head 10.6285 -3.56413 4.13229
rclavicle -8.74653e-015 4.29375e-014
rhumerus -22.0723 -2.85704 -69.8785
rradius 134.02
rwrist 0.121939
rhand -19.3271 21.1301
rfingers 7.12502
rthumb 6.98937 -8.73453
lclavicle -8.74653e-015 4.29375e-014
lhumerus -6.15976 -25.6952 92.007
lradius 117.527
lwrist -8.79052
lhand -5.32938 5.5295
lfingers 7.12502
lthumb 20.4769 34.4697
rfemur -23.5076 1.49958 1.07984
rtibia 50.5459
rfoot -7.53742 -3.72337
rtoes -9.99816
lfemur -11.4669 3.95614 -7.76189
ltibia 42.4109
lfoot -4.22199 -20.7104
ltoes -29.8982
1701
root 2.11157 17.5562 -3.48701 6.37849 20.0405 1.40823
lowerback 9.39392 -4.14256 -3.1277
upperback 0.259158 -5.5811 5.31511
thorax -4.14797 -2.66522 8.06273
lowerneck -19.6776 -6.85901 -12.495
upperneck 20.357 -8.01007 9.26182
head 10.7016 -3.58255 4.16676
rclavicle -2.92213e-014 -3.65764e-014
rhumerus -21.9105 -2.88753 -69.9641
rradius 133.87
rwrist 0.329649
rhand -19.4948 21.2593
rfingers 7.12502
rthumb 6.82751 -8.6106
lclavicle -2.92213e-014 -3.65764e-014
lhumerus -6.28104 -25.7108 91.4887
lradius 117.462
lwrist -8.94785
lhand -5.74658 5.15208
lfingers 7.12502
lthumb 20.076 34.1349
rfemur -22.8913 0.981451 1.27636
rtibia 49.1622
rfoot -7.55084 -3.41828
rtoes -9.36225
lfemur -12.2488 3.47527 -7.88565
ltibia 42.8296
lfoot -1.4256 -21.5835
ltoes -30.2544
1702
root 2.13046 17.6374 -3.44224 6.47109 20.8116 1.38569
lowerback 9.24798 -4.19486 -3.05929
upperback 0.252556 -5.64807 5.19279
thorax -4.082 -2.70302 7.8838
lowerneck -20.0263 -6.99845 -12.4276
upperneck 20.3211 -8.21022 9.37554
head 10.781 -3.64532 4.15758
rclavicle 5.08889e-014 -1.90833e-014
rhumerus -21.9092 -2.99205 -69.8585
rradius 133.884
rwrist 0.320047
rhand -19.4049 21.1016
rfingers 7.12502
rthumb 6.91428 -8.76546
lclavicle 5.08889e-014 -1.90833e-014
lhumerus -6.40743 -25.8944 91.0159
lradius 117.477
lwrist -8.38561
lhand -6.94895 5.06753
lfingers 7.12502
lthumb 18.9199 34.1674
rfemur -22.3529 0.495676 1.8773
rtibia 47.693
rfoot -7.5142 -3.50074
rtoes -9.06453
lfemur -13.2028 3.0097 -7.59531
ltibia 43.3002
lfoot 0.721446 -22.2517
ltoes -29.636
1703
root 2.14566 17.7108 -3.4091 6.45021 21.5889 1.03196
lowerback 9.3289 -4.19304 -2.77277
upperback 0.205581 -5.60923 5.25803
thorax -4.20357 -2.68202 7.79869
lowerneck -20.3879 -7.22919 -12.5582
upperneck 20.2899 -8.46653 9.45732
head 10.8801 -3.75201 4.15842
rclavicle 3.4191e-014 -3.18055e-015
rhumerus -21.9112 -3.1233 -69.3323
rradius 133.938
rwrist 0.338608
rhand -19.2472 20.8056
rfingers 7.12502
rthumb 7.06657 -9.05646
lclavicle 3.4191e-014 -3.18055e-015
lhumerus -6.59293 -26.078 90.7568
lradius 117.522
lwrist -8.21858
lhand -7.32342 5.33538
lfingers 7.12502
lthumb 18.5597 34.47
rfemur -21.9007 0.206594 2.81627
rtibia 46.2052
rfoot -7.39973 -4.12949
rtoes -8.41977
lfemur -14.2336 2.4109 -6.97271
ltibia 43.8362
lfoot 1.89617 -22.1439
ltoes -27.7426
1704
root 2.16095 17.769 -3.3804 6.33468 22.3309 0.770168
lowerback 9.62193 -4.16764 -2.58991
upperback 0.221245 -5.54945 5.3329
thorax -4.36968 -2.64804 7.79824
lowerneck -20.9125 -7.48445 -12.7397
upperneck 20.1747 -8.69429 9.47196
head 10.9744 -3.85237 4.14209
rclavicle 6.04305e-014 -5.88403e-014
rhumerus -21.7103 -3.23739 -68.6717
rradius 133.968
rwrist 0.440199
rhand -19.1538 20.5479
rfingers 7.12502
rthumb 7.15668 -9.31111
lclavicle 6.04305e-014 -5.88403e-014
lhumerus -6.65012 -26.1806 90.5804
lradius 117.476
lwrist -8.16797
lhand -7.29861 5.61648
lfingers 7.12502
lthumb 18.5836 34.7488
rfemur -21.3788 -0.144256 3.63643
rtibia 44.7767
rfoot -7.14451 -5.11048
rtoes -7.39444
lfemur -15.0608 1.64984 -6.48237
ltibia 44.3843
lfoot 1.60189 -21.2354
ltoes -26.5174
1705
root 2.17853 17.8114 -3.35083 6.12725 23.1006 0.515726
lowerback 9.99289 -4.20077 -2.25712
upperback 0.236501 -5.55482 5.27365
thorax -4.59772 -2.64805 7.5831
lowerneck -21.2556 -7.64937 -12.6542
upperneck 19.9834 -8.87627 9.3989
head 10.9822 -3.92647 4.05887
rclavicle -7.73272e-014 -3.97569e-014
rhumerus -21.5993 -3.30685 -68.1748
rradius 134.055
rwrist 0.505927
rhand -19.186 20.4667
rfingers 7.12502
rthumb 7.12565 -9.39335
lclavicle -7.73272e-014 -3.97569e-014
lhumerus -6.7859 -26.2813 90.2661
lradius 117.454
lwrist -7.84362
lhand -7.56462 5.89321
lfingers 7.12502
lthumb 18.3277 35.0498
rfemur -20.7756 -0.533783 4.41132
rtibia 43.4688
rfoot -7.29068 -6.39542
rtoes -5.30883
lfemur -15.7012 0.774656 -6.02391
ltibia 44.8177
lfoot -1.50152 -16.4636
ltoes -32.8198
1706
root 2.19941 17.8376 -3.32224 5.89568 23.8859 0.299525
lowerback 10.7122 -4.26088 -1.77382
upperback -0.0103956 -5.57346 5.06939
thorax -5.32502 -2.63712 7.18499
lowerneck -21.1588 -7.73728 -12.5031
upperneck 19.9225 -9.05784 9.3962
head 10.9565 -4.00011 4.00169
rclavicle 6.85807e-014 1.27222e-014
rhumerus -21.9402 -3.21637 -67.7288
rradius 134.152
rwrist 0.469753
rhand -19.239 20.4744
rfingers 7.12502
rthumb 7.07447 -9.3874
lclavicle 6.85807e-014 1.27222e-014
lhumerus -7.49211 -26.3331 90.0955
lradius 117.568
lwrist -7.56854
lhand -7.36005 6.36696
lfingers 7.12502
lthumb 18.5245 35.5049
rfemur -20.1723 -0.990364 5.11037
rtibia 42.3832
rfoot -8.38112 -7.94005
rtoes -2.57827
lfemur -16.2351 -0.109554 -5.63487
ltibia 44.9869
lfoot -2.89038 -10.7338
ltoes -33.5312
1707
root 2.22221 17.8582 -3.29637 5.81475 24.5754 0.155131
lowerback 11.6955 -4.26901 -1.23853
upperback -0.52505 -5.50591 4.77357
thorax -6.51323 -2.57041 6.69804
lowerneck -20.8874 -7.80507 -12.429
upperneck 20.0531 -9.25523 9.51655
head 10.982 -4.07759 4.00659
rclavicle -2.56432e-014 -7.07673e-014
rhumerus -22.5951 -3.10229 -67.2442
rradius 134.3
rwrist 0.229341
rhand -19.1676 20.3299
rfingers 7.12502
rthumb 7.14339 -9.5295
lclavicle -2.56432e-014 -7.07673e-014
lhumerus -8.55523 -26.4106 90.1398
lradius 117.686
lwrist -7.21824
lhand -6.98214 6.4106
lfingers 7.12502
lthumb 18.888 35.5135
rfemur -19.7607 -1.54457 5.71994
rtibia 41.5792
rfoot -10.2429 -9.63456
rtoes 0.381553
lfemur -16.8507 -0.948029 -5.34038
ltibia 44.8171
lfoot -3.76165 -5.74853
ltoes -29.8909
1708
root 2.24263 17.8693 -3.27429 5.90337 25.112 0.216587
lowerback 12.47 -4.21532 -0.881174
upperback -0.935241 -5.39057 4.36711
thorax -7.47671 -2.49341 6.15387
lowerneck -20.6545 -7.88304 -12.3253
upperneck 20.1481 -9.49686 9.74441
head 11.0119 -4.15908 4.03773
rclavicle -8.15017e-015 2.78299e-014
rhumerus -23.0074 -3.09689 -66.8793
rradius 134.459
rwrist -0.0957914
rhand -19.0548 20.2285
rfingers 7.12502
rthumb 7.25221 -9.62722
lclavicle -8.15017e-015 2.78299e-014
lhumerus -9.35227 -26.5535 90.0313
lradius 117.718
lwrist -6.94664
lhand -6.68128 5.86736
lfingers 7.12502
lthumb 19.1773 34.9419
rfemur -19.6041 -2.04218 6.08192
rtibia 41.1058
rfoot -12.3903 -11.2135
rtoes 3.42022
lfemur -17.502 -1.59905 -5.22957
ltibia 44.2721
lfoot -4.98878 -3.17089
ltoes -27.1086
